HIERARCHY
ROOT Joint1
{
	OFFSET 0.000000 0.000000 0.000000
	CHANNELS 6 Xposition Yposition Zposition Xrotation Yrotation Zrotation
	JOINT Joint2
	{
		OFFSET -0.000000 0.000000 1.456275
		CHANNELS 6 Xposition Yposition Zposition Xrotation Yrotation Zrotation
		JOINT Joint3
		{
			OFFSET -0.000000 0.000002 1.471446
			CHANNELS 6 Xposition Yposition Zposition Xrotation Yrotation Zrotation
			JOINT Joint4
			{
				OFFSET 0.625745 0.000000 0.917755
				CHANNELS 6 Xposition Yposition Zposition Xrotation Yrotation Zrotation
				JOINT Joint5
				{
					OFFSET -0.629534 0.000001 0.940221
					CHANNELS 6 Xposition Yposition Zposition Xrotation Yrotation Zrotation
					JOINT Joint6
					{
						OFFSET -0.000001 0.113772 1.960660
						CHANNELS 6 Xposition Yposition Zposition Xrotation Yrotation Zrotation
						JOINT Joint7
						{
							OFFSET -0.669733 -0.113771 0.388340
							CHANNELS 6 Xposition Yposition Zposition Xrotation Yrotation Zrotation
							End Site
							{
								OFFSET 0.005509 0.005509 0.438980
							}
						}
					}
				}
			}
		}
	}
}
MOTION
Frames: 29
Frame Time: 0.041667
0.000000 0.000000 0.000000 -0.000000 1.019410 0.032734 -0.000000 0.000000 1.456275 -0.000000 -44.943519 -0.000000 -0.000000 0.000002 1.471446 0.000000 -1.133461 0.022239 0.625745 0.000000 0.917754 0.000004 135.008647 -0.000001 -0.629534 0.000001 0.940221 -0.000000 1.709736 -0.072059 -0.000001 0.113772 1.960661 -88.294600 90.019988 0.006389 -0.669733 -0.113771 0.388340 -0.705794 3.566198 134.999194 
0.000000 0.000000 0.000000 -0.000000 1.019410 0.129380 -0.000000 0.000000 1.456275 -0.000000 -44.841654 0.000000 -0.000000 0.000002 1.471446 -0.000000 -1.133462 0.169459 0.625745 0.000000 0.917755 0.000003 134.972406 -0.000001 -0.629533 0.000001 0.940221 0.000000 1.709737 -0.217560 0.000000 0.113772 1.960660 -88.302762 90.158278 0.000716 -0.669733 -0.113771 0.388339 -0.707577 3.566197 135.099584 
0.000000 0.000000 0.000000 -0.000000 1.019410 0.282521 -0.000000 0.000000 1.456275 -0.000000 -44.680236 -0.000000 -0.000000 0.000002 1.471446 0.000000 -1.133458 0.402735 0.625745 0.000000 0.917755 0.000004 134.914992 -0.000001 -0.629534 0.000001 0.940221 -0.000000 1.709736 -0.448114 -0.000001 0.113772 1.960660 -88.303349 90.377398 0.000329 -0.669733 -0.113771 0.388340 -0.710402 3.566187 135.258646 
0.000000 0.000000 0.000000 -0.000000 1.019410 0.485662 -0.000000 -0.000000 1.456275 -0.000000 -44.466123 -0.000000 -0.000000 0.000002 1.471446 -0.000000 -1.133459 0.712176 0.625744 0.000000 0.917755 0.000004 134.838835 -0.000001 -0.629534 0.000001 0.940221 0.000000 1.709736 -0.753943 -0.000001 0.113772 1.960660 -88.303588 90.668063 0.000166 -0.669733 -0.113771 0.388340 -0.714150 3.566163 135.469644 
0.000000 0.000000 0.000000 -0.000000 1.019410 0.732310 -0.000000 0.000000 1.456275 0.000000 -44.206166 -0.000000 -0.000000 0.000002 1.471446 0.000000 -1.133458 1.087889 0.625744 0.000000 0.917755 0.000003 134.746368 -0.000001 -0.629534 0.000001 0.940221 0.000000 1.709737 -1.125271 -0.000001 0.113772 1.960661 -88.303684 91.020979 0.000139 -0.669733 -0.113771 0.388339 -0.718701 3.566116 135.725845 
0.000000 0.000000 0.000000 -0.000000 1.019410 1.015969 -0.000000 -0.000000 1.456275 -0.000000 -43.907178 -0.000000 -0.000000 0.000002 1.471446 -0.000000 -1.133458 1.519982 0.625745 0.000000 0.917755 0.000003 134.640049 -0.000001 -0.629534 0.000001 0.940221 0.000000 1.709736 -1.552321 -0.000000 0.113772 1.960660 -88.303746 91.426856 0.000095 -0.669733 -0.113771 0.388339 -0.723933 3.566036 136.020485 
0.000000 0.000000 0.000000 -0.000000 1.019410 1.330148 -0.000000 0.000000 1.456275 0.000000 -43.576030 -0.000000 -0.000000 0.000002 1.471446 -0.000000 -1.133462 1.998565 0.625744 0.000000 0.917755 0.000003 134.522242 -0.000001 -0.629534 0.000001 0.940221 0.000000 1.709737 -2.025317 -0.000001 0.113772 1.960661 -88.303786 91.876399 0.000068 -0.669733 -0.113771 0.388340 -0.729729 3.565918 136.346818 
0.000000 0.000000 0.000000 -0.000000 1.019410 1.668350 -0.000000 0.000000 1.456275 0.000000 -43.219569 0.000000 -0.000000 0.000002 1.471446 0.000000 -1.133461 2.513741 0.625745 0.000000 0.917755 0.000004 134.395447 -0.000001 -0.629534 0.000001 0.940221 0.000000 1.709737 -2.534481 -0.000000 0.113772 1.960660 -88.303800 92.360311 0.000047 -0.669733 -0.113771 0.388340 -0.735966 3.565752 136.698122 
0.000000 0.000000 0.000000 -0.000000 1.019410 2.024083 -0.000000 -0.000000 1.456275 0.000000 -42.844622 0.000000 -0.000000 0.000002 1.471446 -0.000000 -1.133458 3.055623 0.625745 0.000000 0.917755 0.000003 134.262094 -0.000001 -0.629534 0.000001 0.940221 -0.000000 1.709737 -3.070038 -0.000000 0.113772 1.960660 -88.303814 92.869310 0.000048 -0.669733 -0.113771 0.388341 -0.742526 3.565535 137.067635 
0.000000 0.000000 0.000000 -0.000000 1.019410 2.390854 -0.000000 0.000000 1.456275 0.000000 -42.458044 -0.000000 -0.000000 0.000002 1.471446 0.000000 -1.133457 3.614318 0.625745 0.000000 0.917754 0.000003 134.124602 -0.000001 -0.629534 0.000001 0.940221 0.000000 1.709736 -3.622210 -0.000001 0.113772 1.960660 -88.303834 93.394108 0.000030 -0.669733 -0.113771 0.388339 -0.749287 3.565270 137.448596 
0.000000 0.000000 0.000000 -0.000000 1.019410 2.767124 -0.000000 0.000000 1.456275 0.000000 -42.061452 -0.000000 -0.000000 0.000002 1.471446 0.000000 -1.133456 4.187482 0.625745 0.000000 0.917755 0.000005 133.983559 -0.000001 -0.629534 0.000001 0.940222 -0.000000 1.709736 -4.188685 0.000000 0.113772 1.960660 -88.303834 93.932498 0.000031 -0.669733 -0.113771 0.388340 -0.756222 3.564951 137.839433 
0.000000 0.000000 0.000000 -0.000000 1.019410 3.171186 -0.000000 0.000000 1.456275 -0.000000 -41.635570 0.000000 -0.000000 0.000002 1.471446 0.000000 -1.133458 4.802982 0.625745 0.000000 0.917755 0.000004 133.832052 -0.000001 -0.629534 0.000001 0.940221 -0.000000 1.709736 -4.797001 -0.000001 0.113772 1.960661 -88.303841 94.510653 0.000031 -0.669733 -0.113771 0.388340 -0.763666 3.564553 138.259121 
0.000000 0.000000 0.000000 -0.000000 1.019410 3.626291 -0.000000 -0.000000 1.456275 -0.000000 -41.155882 -0.000000 -0.000000 0.000002 1.471446 0.000001 -1.133461 5.496235 0.625744 0.000000 0.917755 0.000004 133.661447 -0.000002 -0.629534 0.000001 0.940221 0.000000 1.709736 -5.482163 -0.000001 0.113772 1.960660 -88.303848 95.161836 0.000024 -0.669733 -0.113771 0.388340 -0.772048 3.564044 138.731838 
0.000000 0.000000 0.000000 -0.000000 1.019410 4.155690 -0.000000 0.000000 1.456275 -0.000000 -40.597890 -0.000000 -0.000000 0.000002 1.471446 0.000000 -1.133458 6.302657 0.625745 0.000000 0.917755 0.000003 133.462976 -0.000002 -0.629534 0.000001 0.940221 -0.000001 1.709736 -6.279173 -0.000001 0.113772 1.960660 -88.303848 95.919331 0.000021 -0.669733 -0.113771 0.388340 -0.781790 3.563364 139.281737 
0.000000 0.000000 0.000000 -0.000000 1.019410 4.782632 -0.000000 -0.000000 1.456275 0.000000 -39.937089 -0.000000 -0.000000 0.000002 1.471445 -0.000000 -1.133459 7.257666 0.625745 0.000000 0.917755 0.000003 133.227949 -0.000000 -0.629534 0.000001 0.940221 0.000000 1.709736 -7.223035 -0.000001 0.113772 1.960660 -88.303862 96.816388 0.000021 -0.669733 -0.113771 0.388339 -0.793319 3.562435 139.932927 
0.000000 0.000000 0.000000 -0.000000 1.019410 5.519004 -0.000000 0.000000 1.456275 0.000000 -39.160951 -0.000001 -0.000000 0.000002 1.471445 0.000000 -1.133458 8.379367 0.625745 0.000000 0.917755 0.000002 132.951886 -0.000001 -0.629534 0.000001 0.940221 0.000001 1.709736 -8.331642 -0.000000 0.113772 1.960661 -88.303862 97.870027 0.000014 -0.669733 -0.113771 0.388340 -0.806847 3.561181 140.697799 
0.000000 0.000000 0.000000 -0.000000 1.019410 6.331239 -0.000000 0.000000 1.456275 -0.000000 -38.304848 -0.000000 -0.000000 0.000002 1.471446 0.000000 -1.133460 9.616630 0.625744 0.000000 0.917755 0.000002 132.647396 -0.000003 -0.629534 0.000001 0.940221 0.000000 1.709736 -9.554463 -0.000000 0.113772 1.960660 -88.303862 99.032217 0.000012 -0.669733 -0.113771 0.388340 -0.821747 3.559585 141.541464 
0.000000 0.000000 0.000000 -0.000000 1.019410 7.174411 -0.000000 0.000000 1.456275 0.000000 -37.416145 0.000000 -0.000000 0.000002 1.471446 -0.000000 -1.133458 10.901019 0.625745 0.000000 0.917755 0.000002 132.331295 -0.000002 -0.629533 0.000001 0.940221 0.000001 1.709736 -10.823861 -0.000000 0.113772 1.960661 -88.303868 100.238668 0.000013 -0.669733 -0.113771 0.388339 -0.837188 3.557701 142.417258 
0.000000 0.000000 0.000000 -0.000000 1.019410 8.008252 -0.000000 0.000000 1.456275 0.000000 -36.537264 -0.000001 -0.000000 0.000002 1.471446 -0.000000 -1.133458 12.171191 0.625745 0.000000 0.917755 0.000002 132.018705 -0.000002 -0.629533 0.000001 0.940221 -0.000001 1.709736 -12.079208 -0.000001 0.113772 1.960661 -88.303868 101.431765 0.000014 -0.669733 -0.113771 0.388340 -0.852427 3.555602 143.283381 
0.000000 0.000000 0.000000 -0.000000 1.019410 8.811159 -0.000000 0.000000 1.456275 0.000001 -35.690996 -0.000001 -0.000000 0.000002 1.471446 0.000000 -1.133459 13.394243 0.625745 0.000000 0.917755 0.000004 131.717685 -0.000001 -0.629534 0.000001 0.940221 -0.000001 1.709737 -13.287987 -0.000000 0.113772 1.960661 -88.303868 102.580610 0.000016 -0.669733 -0.113771 0.388339 -0.867070 3.553363 144.117347 
0.000000 0.000000 0.000000 -0.000000 1.019410 9.566188 -0.000000 0.000000 1.456275 -0.000000 -34.895194 0.000001 -0.000001 0.000002 1.471445 0.000000 -1.133458 14.544369 0.625745 0.000000 0.917754 0.000003 131.434628 -0.000002 -0.629534 0.000001 0.940221 0.000001 1.709736 -14.424683 -0.000001 0.113772 1.960660 -88.303862 103.660955 0.000008 -0.669733 -0.113771 0.388340 -0.880807 3.551070 144.901589 
0.000000 0.000000 0.000000 -0.000000 1.019410 10.278006 -0.000000 -0.000000 1.456275 -0.000000 -34.144925 0.000001 -0.000000 0.000002 1.471446 0.000000 -1.133456 15.628665 0.625745 0.000000 0.917755 0.000002 131.167772 0.000004 -0.629534 0.000001 0.940221 -0.000001 1.709736 -15.496326 -0.000001 0.113772 1.960661 -88.303882 104.679445 0.000002 -0.669733 -0.113771 0.388340 -0.893729 3.548725 145.640930 
0.000000 0.000000 0.000000 -0.000000 1.019410 11.037701 -0.000000 0.000000 1.456275 -0.000001 -33.344205 -0.000000 -0.000000 0.000002 1.471446 0.000001 -1.133455 16.785892 0.625745 0.000000 0.917755 0.000003 130.882981 0.000001 -0.629534 0.000001 0.940221 -0.000000 1.709736 -16.640047 -0.000000 0.113772 1.960661 -88.303868 105.766463 0.000009 -0.669733 -0.113771 0.388340 -0.907484 3.546049 146.430008 
0.000000 0.000000 0.000000 -0.000000 1.019410 11.957967 -0.000000 0.000000 1.456275 -0.000000 -32.374236 0.000001 -0.000001 0.000002 1.471446 0.000000 -1.133459 18.187713 0.625745 0.000000 0.917755 0.000002 130.537974 -0.000000 -0.629534 0.000001 0.940221 0.000001 1.709735 -18.025506 -0.000001 0.113772 1.960661 -88.303875 107.083228 0.000004 -0.669734 -0.113771 0.388340 -0.924099 3.542559 147.385865 
0.000000 0.000000 0.000000 -0.000000 1.019410 13.103844 -0.000000 -0.000000 1.456275 0.000000 -31.166478 -0.000001 -0.000000 0.000002 1.471446 0.000000 -1.133456 19.933209 0.625745 0.000000 0.917755 -0.000001 130.108383 -0.000000 -0.629534 0.000001 0.940221 -0.000002 1.709735 -19.750626 -0.000002 0.113772 1.960660 -88.303868 108.722808 0.000002 -0.669733 -0.113771 0.388340 -0.944701 3.537822 148.576067 
0.000000 0.000000 0.000000 -0.000000 1.019410 14.349746 -0.000000 -0.000000 1.456275 -0.000000 -29.853292 0.000000 -0.000000 0.000002 1.471445 -0.000001 -1.133455 21.831066 0.625744 0.000000 0.917755 0.000006 129.641321 -0.000003 -0.629534 0.000001 0.940221 0.000000 1.709736 -21.626332 -0.000001 0.113772 1.960661 -88.303868 110.505501 0.000004 -0.669733 -0.113771 0.388340 -0.966979 3.532180 149.870128 
0.000000 0.000000 0.000000 -0.000000 1.019410 15.559036 -0.000000 -0.000000 1.456275 0.000000 -28.578690 -0.000001 -0.000001 0.000002 1.471445 -0.000001 -1.133456 23.673152 0.625744 0.000000 0.917755 0.000002 129.187974 -0.000001 -0.629534 0.000001 0.940221 0.000002 1.709735 -23.446921 -0.000001 0.113772 1.960661 -88.303868 112.235820 0.000001 -0.669733 -0.113771 0.388340 -0.988477 3.526229 151.126159 
0.000000 0.000000 0.000000 -0.000000 1.019410 16.741523 -0.000000 0.000000 1.456275 0.000000 -27.332341 -0.000001 -0.000000 0.000002 1.471446 -0.000001 -1.133460 25.474415 0.625745 0.000000 0.917755 -0.000000 128.744667 -0.000001 -0.629534 0.000001 0.940221 -0.000006 1.709736 -25.227159 -0.000001 0.113772 1.960660 -88.303882 113.927788 0.000006 -0.669733 -0.113771 0.388340 -1.009371 3.519956 152.354336 
0.000000 0.000000 0.000000 -0.000000 1.019410 17.933825 -0.000000 -0.000000 1.456275 -0.000000 -26.075647 0.000001 -0.000000 0.000002 1.471446 0.000000 -1.133456 27.290618 0.625745 0.000000 0.917755 0.000001 128.297672 0.000003 -0.629534 0.000001 0.940221 -0.000003 1.709736 -27.022165 -0.000001 0.113772 1.960661 -88.303875 115.633791 0.000005 -0.669733 -0.113771 0.388340 -1.030292 3.513185 153.592731 
